<svg width="87" height="87" viewBox="0 0 87 87" fill="none" xmlns="http://www.w3.org/2000/svg">
<path d="M64.71 29.26H35.95C31.9791 29.26 28.76 32.4791 28.76 36.45V65.21C28.76 69.1809 31.9791 72.4 35.95 72.4H64.71C68.6809 72.4 71.9 69.1809 71.9 65.21V36.45C71.9 32.4791 68.6809 29.26 64.71 29.26Z" stroke="#7EC2E9" stroke-width="7.19" stroke-linecap="round" stroke-linejoin="round"/>
<path d="M57.52 29.26V22.07C57.52 20.1631 56.7625 18.3343 55.4141 16.9859C54.0657 15.6375 52.2369 14.88 50.33 14.88H21.57C19.6631 14.88 17.8343 15.6375 16.4859 16.9859C15.1375 18.3343 14.38 20.1631 14.38 22.07V50.83C14.38 52.7369 15.1375 54.5657 16.4859 55.9141C17.8343 57.2625 19.6631 58.02 21.57 58.02H28.76" stroke="#7EC2E9" stroke-width="7.19" stroke-linecap="round" stroke-linejoin="round"/>
</svg>
